name ./resultDataOpenSim/trcMotMarkerGrf/sub10/grf-03-05.mot
datacolumns 19
datarows 27
range 1.00400000 1.10800000
endheader

                time	     ground_force_vx	     ground_force_vy	     ground_force_vz	     ground_force_px	     ground_force_py	     ground_force_pz	   l_ground_force_vx	   l_ground_force_vy	   l_ground_force_vz	   l_ground_force_px	   l_ground_force_py	   l_ground_force_pz	     ground_torque_x	     ground_torque_y	     ground_torque_z	   l_ground_torque_x	   l_ground_torque_y	   l_ground_torque_z	
          1.00400000	          0.00000000	          0.00000000	          0.00000000	          0.00000000	          0.00000000	          0.00000000	         -1.35396352	        343.78620534	         15.01803952	          0.03038819	         -0.05000000	         -0.03774195	          0.00000000	          0.00000000	          0.00000000	          0.00000000	         -2.01764415	          0.00000000	
          1.00800000	          0.00000000	          0.00000000	          0.00000000	          0.00000000	          0.00000000	          0.00000000	          1.72541807	        342.61752403	         15.07408214	          0.03168029	         -0.05000000	         -0.03779998	          0.00000000	          0.00000000	          0.00000000	          0.00000000	         -2.31359241	          0.00000000	
          1.01200000	          0.00000000	          0.00000000	          0.00000000	          0.00000000	          0.00000000	          0.00000000	          4.90156431	        342.92042029	         15.21798684	          0.03270702	         -0.05000000	         -0.03806728	          0.00000000	          0.00000000	          0.00000000	          0.00000000	         -2.63182407	          0.00000000	
          1.01600000	          0.00000000	          0.00000000	          0.00000000	          0.00000000	          0.00000000	          0.00000000	          8.14638549	        344.82580876	         15.45713606	          0.03338997	         -0.05000000	         -0.03848788	          0.00000000	          0.00000000	          0.00000000	          0.00000000	         -2.96620725	          0.00000000	
          1.02000000	          0.00000000	          0.00000000	          0.00000000	          0.00000000	          0.00000000	          0.00000000	         11.43926106	        348.36497716	         15.78254238	          0.03378278	         -0.05000000	         -0.03895878	          0.00000000	          0.00000000	          0.00000000	          0.00000000	         -3.31047692	          0.00000000	
          1.02400000	          0.00000000	          0.00000000	          0.00000000	          0.00000000	          0.00000000	          0.00000000	         14.76451188	        353.47710467	         16.17313029	          0.03405491	         -0.05000000	         -0.03936070	          0.00000000	          0.00000000	          0.00000000	          0.00000000	         -3.65897390	          0.00000000	
          1.02800000	          0.00000000	          0.00000000	          0.00000000	          0.00000000	          0.00000000	          0.00000000	         18.09910857	        360.03559926	         16.60194176	          0.03437698	         -0.05000000	         -0.03960600	          0.00000000	          0.00000000	          0.00000000	          0.00000000	         -4.00727190	          0.00000000	
          1.03200000	          0.00000000	          0.00000000	          0.00000000	          0.00000000	          0.00000000	          0.00000000	         21.40213739	        367.88276979	         17.03883750	          0.03485695	         -0.05000000	         -0.03967760	          0.00000000	          0.00000000	          0.00000000	          0.00000000	         -4.35247680	          0.00000000	
          1.03600000	          0.00000000	          0.00000000	          0.00000000	          0.00000000	          0.00000000	          0.00000000	         24.60745165	        376.89174579	         17.45345731	          0.03550727	         -0.05000000	         -0.03961210	          0.00000000	          0.00000000	          0.00000000	          0.00000000	         -4.69308920	          0.00000000	
          1.04000000	          0.00000000	          0.00000000	          0.00000000	          0.00000000	          0.00000000	          0.00000000	         27.62299402	        387.01488197	         17.82464694	          0.03630969	         -0.05000000	         -0.03944770	          0.00000000	          0.00000000	          0.00000000	          0.00000000	         -5.02845452	          0.00000000	
          1.04400000	          0.00000000	          0.00000000	          0.00000000	          0.00000000	          0.00000000	          0.00000000	         30.34023877	        398.25399986	         18.15869841	          0.03725986	         -0.05000000	         -0.03921732	          0.00000000	          0.00000000	          0.00000000	          0.00000000	         -5.35792877	          0.00000000	
          1.04800000	          0.00000000	          0.00000000	          0.00000000	          0.00000000	          0.00000000	          0.00000000	         32.65476967	        410.58777509	         18.49759161	          0.03837014	         -0.05000000	         -0.03894633	          0.00000000	          0.00000000	          0.00000000	          0.00000000	         -5.67995102	          0.00000000	
          1.05200000	          0.00000000	          0.00000000	          0.00000000	          0.00000000	          0.00000000	          0.00000000	         34.48596302	        423.92636892	         18.90220212	          0.03968229	         -0.05000000	         -0.03863077	          0.00000000	          0.00000000	          0.00000000	          0.00000000	         -5.99122619	          0.00000000	
          1.05600000	          0.00000000	          0.00000000	          0.00000000	          0.00000000	          0.00000000	          0.00000000	         35.78122468	        438.11320074	         19.43359944	          0.04123982	         -0.05000000	         -0.03825769	          0.00000000	          0.00000000	          0.00000000	          0.00000000	         -6.28619457	          0.00000000	
          1.06000000	          0.00000000	          0.00000000	          0.00000000	          0.00000000	          0.00000000	          0.00000000	         36.51405866	        452.96148285	         20.15687944	          0.04302628	         -0.05000000	         -0.03783977	          0.00000000	          0.00000000	          0.00000000	          0.00000000	         -6.55695503	          0.00000000	
          1.06400000	          0.00000000	          0.00000000	          0.00000000	          0.00000000	          0.00000000	          0.00000000	         36.69179157	        468.28357428	         21.15153021	          0.04494285	         -0.05000000	         -0.03741102	          0.00000000	          0.00000000	          0.00000000	          0.00000000	         -6.79383299	          0.00000000	
          1.06800000	          0.00000000	          0.00000000	          0.00000000	          0.00000000	          0.00000000	          0.00000000	         36.37344683	        483.89441061	         22.50053755	          0.04683873	         -0.05000000	         -0.03701066	          0.00000000	          0.00000000	          0.00000000	          0.00000000	         -6.98671640	          0.00000000	
          1.07200000	          0.00000000	          0.00000000	          0.00000000	          0.00000000	          0.00000000	          0.00000000	         35.68985758	        499.63946184	         24.26145236	          0.04858612	         -0.05000000	         -0.03666461	          0.00000000	          0.00000000	          0.00000000	          0.00000000	         -7.12702374	          0.00000000	
          1.07600000	          0.00000000	          0.00000000	          0.00000000	          0.00000000	          0.00000000	          0.00000000	         34.85361995	        515.46576189	         26.44486228	          0.05016780	         -0.05000000	         -0.03635777	          0.00000000	          0.00000000	          0.00000000	          0.00000000	         -7.20986718	          0.00000000	
          1.08000000	          0.00000000	          0.00000000	          0.00000000	          0.00000000	          0.00000000	          0.00000000	         34.14991656	        531.45534693	         29.00520947	          0.05166561	         -0.05000000	         -0.03604563	          0.00000000	          0.00000000	          0.00000000	          0.00000000	         -7.23585982	          0.00000000	
          1.08400000	          0.00000000	          0.00000000	          0.00000000	          0.00000000	          0.00000000	          0.00000000	         33.90305186	        547.75523748	         31.82627691	          0.05312695	         -0.05000000	         -0.03570126	          0.00000000	          0.00000000	          0.00000000	          0.00000000	         -7.21208675	          0.00000000	
          1.08800000	          0.00000000	          0.00000000	          0.00000000	          0.00000000	          0.00000000	          0.00000000	         34.40838680	        564.47505726	         34.71708133	          0.05453835	         -0.05000000	         -0.03531762	          0.00000000	          0.00000000	          0.00000000	          0.00000000	         -7.15189126	          0.00000000	
          1.09200000	          0.00000000	          0.00000000	          0.00000000	          0.00000000	          0.00000000	          0.00000000	         35.84827802	        581.66733362	         37.45126226	          0.05589274	         -0.05000000	         -0.03488401	          0.00000000	          0.00000000	          0.00000000	          0.00000000	         -7.07335327	          0.00000000	
          1.09600000	          0.00000000	          0.00000000	          0.00000000	          0.00000000	          0.00000000	          0.00000000	         38.24809583	        599.36901500	         39.82507451	          0.05718893	         -0.05000000	         -0.03438610	          0.00000000	          0.00000000	          0.00000000	          0.00000000	         -6.99671288	          0.00000000	
          1.10000000	          0.00000000	          0.00000000	          0.00000000	          0.00000000	          0.00000000	          0.00000000	         41.50286258	        617.61632743	         41.69752272	          0.05841859	         -0.05000000	         -0.03382034	          0.00000000	          0.00000000	          0.00000000	          0.00000000	         -6.94132352	          0.00000000	
          1.10400000	          0.00000000	          0.00000000	          0.00000000	          0.00000000	          0.00000000	          0.00000000	         45.45114912	        636.43087557	         43.01349850	          0.05955203	         -0.05000000	         -0.03319858	          0.00000000	          0.00000000	          0.00000000	          0.00000000	         -6.92282119	          0.00000000	
          1.10800000	          0.00000000	          0.00000000	          0.00000000	          0.00000000	          0.00000000	          0.00000000	         49.94548819	        655.79839423	         43.79629021	          0.06058442	         -0.05000000	         -0.03253456	          0.00000000	          0.00000000	          0.00000000	          0.00000000	         -6.95109856	          0.00000000	
